<?xml version="1.0" encoding="UTF-8"?>
<!-- Generator: Adobe Illustrator 26.0.1, SVG Export Plug-In . SVG Version: 6.00 Build 0)  -->
<svg version="1.1" xmlns="http://www.w3.org/2000/svg" xmlns:xlink="http://www.w3.org/1999/xlink" x="0px" y="0px" viewBox="0 0 1386.2 322.2" style="enable-background:new 0 0 1386.2 322.2;" xml:space="preserve">
<style type="text/css">
	.st0{fill:none;stroke:#1D1D1B;stroke-width:1.8444;stroke-miterlimit:10;}
	.st1{fill:#1D1D1B;}
	.st2{fill:#AE2672;}
</style>
<g id="Logo_Université_de_Lille">
	<g>
		<line class="st0" x1="641.6" y1="67.9" x2="641.6" y2="253.7"/>
	</g>
	<g>
		<path d="M806.9,150.4V83.2h-17.3v79.1c0,2.7,2,4.4,4.4,4.4h49l7.3-16.3H806.9z M776.5,220.6c-29.7,0-45.6-15.2-45.6-47.3V83.2    h-18.6v92.1c0,39.3,22.8,63,58.9,63h39.2l8-17.7H776.5z M783.1,185.1c-9.1,0-14-4.4-14-13.7V83.2h-18V172    c0,19.2,11.3,30.3,31,30.3h44.5l7.7-17.2H783.1z"/>
		<path d="M912.5,151.3c16.8,0,26.5-8.9,26.5-27v-41h-10.3v41.2c0,11.5-5.1,17.5-16.2,17.5c-11,0-16.4-6-16.4-17.5V83.3h-10.3v41    C885.9,142.4,895.7,151.3,912.5,151.3 M950,150.4h9.6l0.1-27.5c0-8,4.6-12.8,12.1-12.8c7.2,0,11,4.4,11,12.8v27.5h9.6v-29.6    c0-11.6-5.8-19.3-17.2-19.3c-6.4,0-12.2,2.5-15.6,6.8v-5.8H950V150.4z M1003.6,150.4h9.6v-47.9h-9.6V150.4z M1037.5,150.4h12.1    l18.2-47.9h-10.4l-13.8,39.9l-14-39.9h-10.4L1037.5,150.4z M1008.5,94.3c3.5,0,5.9-2.6,5.9-5.9c0-3.4-2.3-6-5.9-6    c-3.5,0-5.9,2.5-5.9,5.9C1002.5,91.7,1005,94.3,1008.5,94.3 M1094.7,151.3c11,0,20-6,22.1-14.8h-10.2c-1.7,3.8-6,6.6-12.1,6.6    c-8.2,0-13.4-4.5-14.6-13.2h37.3c0.2-1.2,0.3-2.8,0.3-3.9c0-14.7-8.4-24.5-23.2-24.5c-14.5,0-24.2,9.9-24.2,24.5    C1070.2,141.9,1079.8,151.3,1094.7,151.3 M1080.1,122.2c1.1-7.7,6.1-12.6,14.1-12.6c8.1,0,13.7,5.4,13.7,12.6H1080.1z     M1127.2,150.4h9.6v-39.3h16.9v-8.6h-13.9c-7.3,0-12.6,5.3-12.6,12.6V150.4z M1177.3,151.3c12.4,0,19.8-5.3,19.8-14.8    c0-8.2-4.6-12.7-13.2-14.2l-11-1.8c-3.7-0.6-5.8-2.4-5.8-5.5c0-3.8,3.9-5.9,9.5-5.9c6.4,0,10.1,2.9,10.4,7.7h9.3    c-0.5-10-7.3-15.4-19.7-15.4c-11.9,0-18.4,5.8-18.4,14.1c0,8.1,5,12.2,13.1,13.5l10.2,1.6c4.6,0.8,6.4,3.7,6.4,6.5    c0,3.8-4,6.1-10.6,6.1c-7.2,0-10.5-3.5-11.1-7.4h-9.5C1157.2,145.3,1165.2,151.3,1177.3,151.3 M1206.7,150.4h9.6v-47.9h-9.6V150.4    z M1240.6,150.4h12v-8.6h-14.9v-30.7h14.9v-8.6h-14.9v-15h-9.6V138C1228.2,145.3,1233.3,150.4,1240.6,150.4 M1211.6,94.3    c3.5,0,5.9-2.6,5.9-5.9c0-3.4-2.3-6-5.9-6c-3.5,0-5.9,2.5-5.9,5.9C1205.6,91.7,1208.1,94.3,1211.6,94.3 M1281.8,151.3    c11,0,20-6,22.1-14.8h-10.2c-1.7,3.8-6,6.6-12.1,6.6c-8.2,0-13.4-4.5-14.6-13.2h37.3c0.2-1.2,0.3-2.8,0.3-3.9    c0-14.7-8.4-24.5-23.2-24.5c-14.5,0-24.2,9.9-24.2,24.5C1257.3,141.9,1266.9,151.3,1281.8,151.3 M1267.2,122.2    c1.1-7.7,6.1-12.6,14.1-12.6c8.1,0,13.7,5.4,13.7,12.6H1267.2z M1277.1,97.2h8.6l9-13.9h-11.3L1277.1,97.2z M910.4,230.8    c-9.8,0-15.3-7.2-15.3-16.3c0-9.1,5.7-16.3,15.3-16.3c9.1,0,15.4,7.2,15.4,16.3C925.8,223.6,919.8,230.8,910.4,230.8 M908.3,239.3    c7.8,0,13.7-2.4,17.2-7.6v6.6h9.6v-67.1h-9.6v25.9c-3.5-4.4-9.6-7.7-17-7.7c-13.5,0-23.5,10.3-23.5,25.1    C885,229.4,894.6,239.3,908.3,239.3 M968.2,239.3c11,0,20-6,22.1-14.8h-10.2c-1.7,3.8-6,6.6-12.1,6.6c-8.2,0-13.4-4.5-14.6-13.2    h37.3c0.2-1.2,0.3-2.8,0.3-3.9c0-14.7-8.4-24.5-23.2-24.5c-14.5,0-24.2,9.9-24.2,24.5C943.6,229.9,953.2,239.3,968.2,239.3     M953.5,210.1c1.1-7.7,6.1-12.6,14.1-12.6c8.1,0,13.7,5.4,13.7,12.6H953.5z M1022,238.3h38.7v-8.8h-28.5v-58.3H1022V238.3z     M1067.6,238.3h9.6v-47.9h-9.6V238.3z M1101.5,238.3h9.6v-8.8h-12.4v-58.3h-9.6V226C1089.1,233.7,1093.6,238.3,1101.5,238.3     M1072.5,182.2c3.5,0,5.9-2.6,5.9-5.9c0-3.5-2.3-6-5.9-6c-3.5,0-5.9,2.5-5.9,5.9S1069.1,182.2,1072.5,182.2 M1128.7,238.3h9.6    v-8.8h-12.4v-58.3h-9.6V226C1116.3,233.7,1120.8,238.3,1128.7,238.3 M1165.2,239.3c11,0,20-6,22.1-14.8h-10.2    c-1.7,3.8-6,6.6-12.1,6.6c-8.2,0-13.4-4.5-14.6-13.2h37.3c0.2-1.2,0.3-2.8,0.3-3.9c0-14.7-8.4-24.5-23.2-24.5    c-14.5,0-24.2,9.9-24.2,24.5C1140.7,229.9,1150.3,239.3,1165.2,239.3 M1150.6,210.1c1.2-7.7,6.1-12.6,14.1-12.6    c8.1,0,13.7,5.4,13.7,12.6H1150.6z"/>
	</g>
</g>
<g id="Logo_Faculté">
	<g>
		<polygon class="st1" points="257.1,104.2 274.4,104.2 274.4,110.1 264.7,110.1 264.7,115.3 273.4,115.3 273.4,120.8 264.7,120.8     264.7,130.4 257.1,130.4   "/>
		<g>
			<path class="st1" d="M292.6,116.2c-0.9-2.3-1.5-4.6-1.5-4.7H291c0,0.1-0.7,2.4-1.4,4.7l-1.6,4.8h6.4L292.6,116.2z M284.6,130.4     h-7.5l10.6-26.2h7.2l10.9,26.2l-8.1,0l-1.4-4.1l-10.2,0L284.6,130.4z"/>
			<path class="st1" d="M308.3,117.3c0-7.2,4.8-13.6,14.7-13.6c3.6,0,6.3,0.7,8.4,2.2l-3.1,5.4c-1.4-0.8-2.7-1.5-5.3-1.5     c-4.1,0-6.5,2.8-6.5,7.2c0,4.6,2.2,7.6,6.6,7.6c2.9,0,4.5-0.9,5.8-1.8l2.9,5.4c-1.6,1.2-4.4,2.6-8.9,2.6     C312.9,130.9,308.3,124.5,308.3,117.3"/>
			<path class="st1" d="M335.8,119.4l0-15.2h7.6l0,14.7c0,4.3,1.2,6,5,6c3.5,0,4.7-1.9,4.7-5.8l0-14.9h7v14.4     c0,8-4.1,12.3-11.9,12.3C340,130.9,335.8,127.1,335.8,119.4"/>
		</g>
		<polygon class="st1" points="366.7,104.2 374.3,104.2 374.3,124.5 384.6,124.5 384.6,130.4 366.7,130.4   "/>
		<polygon class="st1" points="394.6,110.2 386.9,110.2 386.9,104.2 409.9,104.2 409.9,110.2 402.2,110.2 402.2,130.4 394.6,130.4       "/>
		<path class="st1" d="M423.3,94.5h9.6l-7,6.9h-6.5L423.3,94.5z M413.9,104.2l17.7,0v5.8h-10.3v4.4h9.2l0,5.3h-9.2v4.9h10.6l0,5.8    h-18L413.9,104.2z"/>
		<g>
			<path class="st1" d="M264.4,170.1c7.3,0,11.2-3.1,11.2-9.9c0-6.9-3.6-9.6-11.4-9.6l-2.9,0v19.5H264.4z M257.6,147.6l6.7,0     c10.5,0,15.2,4.9,15.2,12.4c0,7.5-4.7,13.1-15.4,13.1l-6.5,0L257.6,147.6z"/>
		</g>
		<polygon class="st1" points="284.5,147.6 299.8,147.6 299.8,150.7 288.3,150.7 288.3,158.2 298.6,158.2 298.6,161.3 288.3,161.3     288.3,170.1 300.1,170.1 300.1,173.2 284.5,173.2   "/>
		<g>
			<path class="st1" d="M303.4,171l1.7-2.6c0.7,0.5,2.5,2.1,6,2.1c3.1,0,5.3-1.4,5.3-3.9c0-2.8-2.4-3.7-6.2-5.4     c-3.2-1.5-6.1-3.3-6.1-7.3c0-4.3,3.7-6.7,8-6.7c4.1,0,6.2,1.4,7.2,2.1l-1.7,2.7c-0.9-0.7-2.8-1.7-5.4-1.7c-2.6,0-4.5,1.1-4.5,3.5     c0,2.6,2.2,3.4,4.9,4.7c3.6,1.6,7.4,3.4,7.4,8.2c0,4.3-3.5,7.1-8.9,7.1C307,173.6,304.4,172,303.4,171"/>
			<path class="st1" d="M331.3,171.3l2.8-5.3c0.8,0.6,2.7,1.8,5.6,1.8c2.4,0,3.6-0.6,3.6-1.8c0-1.8-2.5-2.1-6-3.7     c-3.5-1.6-5.6-3.7-5.6-7.9c0-5.2,4.4-7.9,9.6-7.9c4.6,0,7,1.2,8.4,2.1l-2.7,5.2c-1.1-0.7-3-1.5-5.2-1.5c-1.8,0-2.9,0.5-2.9,1.8     c0,1.6,1.8,1.9,5.1,3.2c3.6,1.5,6.6,3.6,6.6,7.9c0,5.3-3.8,8.4-10.5,8.4C335.5,173.6,332.5,172.2,331.3,171.3"/>
			<path class="st1" d="M354.1,160.1c0-7.2,4.8-13.6,14.6-13.6c3.6,0,6.3,0.8,8.4,2.2l-3.1,5.4c-1.4-0.8-2.6-1.5-5.3-1.5     c-4.1,0-6.5,2.8-6.5,7.2c0,4.6,2.2,7.6,6.6,7.6c2.9,0,4.5-0.9,5.8-1.8l2.8,5.4c-1.6,1.1-4.4,2.6-8.9,2.6     C358.7,173.6,354.1,167.3,354.1,160.1"/>
		</g>
		<rect x="382" y="147" class="st1" width="7.6" height="26.2"/>
		<polygon class="st1" points="396.4,147 414.1,147 414.1,152.8 403.9,152.8 403.9,157.2 413,157.2 413.1,162.5 403.9,162.5     403.9,167.3 414.4,167.3 414.5,173.2 396.5,173.2   "/>
		<g>
			<path class="st1" d="M420.3,146.9l7.6,0l7.7,10.6c1.9,2.6,3,4.7,3.1,4.8h0.1c0-0.1-0.2-2.5-0.2-4.5v-10.9l6.7,0l0,26.2l-6.8,0     l-8.5-11.7c-2-2.7-2.9-4.3-3-4.4h-0.1c0,0,0.1,2,0.1,4v12.1h-6.7V146.9z"/>
			<path class="st1" d="M450.4,160.1c0-7.2,4.8-13.6,14.7-13.6c3.6,0,6.3,0.8,8.4,2.3l-3.1,5.4c-1.4-0.8-2.7-1.5-5.3-1.5     c-4.1,0-6.5,2.8-6.5,7.2c0,4.6,2.2,7.6,6.6,7.6c2.9,0,4.6-0.9,5.8-1.8l2.8,5.4c-1.6,1.1-4.4,2.6-8.9,2.6     C455,173.6,450.4,167.3,450.4,160.1"/>
		</g>
		<polygon class="st1" points="478,146.9 495.8,146.9 495.8,152.8 485.5,152.8 485.5,157.2 494.7,157.2 494.7,162.5 485.5,162.5     485.5,167.3 496.1,167.3 496.1,173.2 478.1,173.2   "/>
		<g>
			<path class="st1" d="M499.9,171.3l2.8-5.3c0.8,0.6,2.7,1.8,5.6,1.8c2.3,0,3.6-0.6,3.6-1.8c0-1.8-2.5-2.1-6-3.7     c-3.5-1.6-5.6-3.7-5.6-7.9c0-5.2,4.4-7.9,9.6-7.9c4.6,0,7,1.2,8.4,2.1l-2.7,5.2c-1.2-0.7-3-1.5-5.2-1.5c-1.7,0-2.9,0.5-2.9,1.8     c0,1.6,1.8,1.9,5.1,3.2c3.6,1.5,6.6,3.6,6.6,7.9c0,5.3-3.8,8.4-10.5,8.4C504.1,173.6,501.2,172.2,499.9,171.3"/>
		</g>
		<polygon class="st1" points="532.9,147.6 548.2,147.6 548.2,150.7 536.7,150.7 536.7,158.2 547,158.2 547,161.3 536.7,161.3     536.7,170.1 548.5,170.1 548.5,173.2 532.9,173.2   "/>
		<polygon class="st1" points="558.7,150.7 550.8,150.7 550.8,147.6 570.3,147.6 570.3,150.7 562.5,150.7 562.5,173.2 558.7,173.2       "/>
		<polygon class="st1" points="264.7,195.8 257.1,195.8 257.1,189.8 280,189.8 280,195.8 272.3,195.8 272.3,216 264.7,216   "/>
		<polygon class="st1" points="284.1,189.8 301.8,189.8 301.8,195.6 291.5,195.6 291.5,200 300.7,200 300.7,205.3 291.5,205.3     291.5,210.2 302.1,210.2 302.1,216 284.1,216   "/>
		<g>
			<path class="st1" d="M306.4,202.9c0-7.2,4.8-13.6,14.7-13.6c3.6,0,6.3,0.7,8.4,2.2l-3.1,5.4c-1.3-0.8-2.7-1.5-5.3-1.5     c-4.1,0-6.5,2.8-6.5,7.2c0,4.6,2.2,7.6,6.6,7.6c2.9,0,4.5-0.9,5.8-1.8l2.8,5.4c-1.6,1.2-4.4,2.6-8.9,2.6     C311,216.4,306.4,210.1,306.4,202.9"/>
		</g>
		<polygon class="st1" points="334.1,189.8 341.7,189.8 341.7,199.4 351.8,199.4 351.8,189.8 359.3,189.8 359.3,216 351.8,216     351.8,205.5 341.7,205.6 341.7,216 334.1,216   "/>
		<g>
			<path class="st1" d="M365.9,189.8h7.6l7.7,10.6c2,2.7,3,4.7,3.1,4.8h0.1c0-0.1-0.2-2.5-0.2-4.5l0-10.9h6.7l0,26.2l-6.8,0     l-8.5-11.7c-2-2.7-2.9-4.3-3-4.4l-0.1,0c0,0,0.2,2,0.2,4V216h-6.7L365.9,189.8z"/>
			<path class="st1" d="M417.2,202.9c0-4.1-1.8-7.6-6.5-7.6c-4.7,0-6.6,3.5-6.6,7.5c0,4.1,1.9,7.7,6.5,7.7     C415.5,210.4,417.2,206.9,417.2,202.9 M396,202.9c0-7,5-13.6,14.6-13.6c9.6,0,14.7,6.2,14.7,13.5c0,7.2-4.7,13.7-14.6,13.7     C401.1,216.4,396,210.1,396,202.9"/>
		</g>
		<polygon class="st1" points="430.5,189.8 438,189.8 438.1,210 448.4,210 448.4,216 430.5,216   "/>
		<g>
			<path class="st1" d="M473,202.9c0-4.1-1.8-7.6-6.5-7.6c-4.7,0-6.6,3.4-6.6,7.5c0,4.1,2,7.7,6.6,7.7     C471.2,210.4,473,206.9,473,202.9 M451.8,202.9c0-7,5-13.6,14.6-13.6c9.6,0,14.6,6.2,14.7,13.5c0,7.2-4.7,13.7-14.6,13.7     C456.9,216.4,451.8,210.1,451.8,202.9"/>
			<path class="st1" d="M484.6,202.9c0-7.2,5.7-13.6,15.8-13.6c4.5,0,7.2,1.1,9.2,2.2l-3.1,5.6c-1.3-0.7-3.4-1.6-6.2-1.6     c-4.9,0-7.6,2.6-7.6,7.3c0,4.7,2.2,7.7,7.1,7.7c1.6,0,2.8-0.3,3.3-0.5l0-3.8l-4.3,0l0-5.3h11.5l0,13.2c-1.7,1-4.7,2.4-10.7,2.4     C489.7,216.4,484.6,210.1,484.6,202.9"/>
		</g>
		<rect x="516.2" y="189.7" class="st1" width="7.6" height="26.2"/>
		<polygon class="st1" points="530.6,189.7 548.3,189.7 548.3,195.6 538.1,195.6 538.1,200 547.3,200 547.3,205.3 538.1,205.3     538.1,210.1 548.6,210.1 548.6,216 530.7,216   "/>
		<g>
			<path class="st1" d="M552.5,214.1l2.8-5.3c0.8,0.5,2.7,1.8,5.6,1.8c2.3,0,3.6-0.6,3.6-1.8c0-1.8-2.5-2.1-6-3.7     c-3.5-1.6-5.6-3.7-5.6-7.9c0-5.2,4.4-7.9,9.6-7.9c4.6,0,7,1.2,8.4,2.1l-2.7,5.2c-1.2-0.7-3.1-1.5-5.2-1.5c-1.7,0-2.9,0.6-2.9,1.8     c0,1.6,1.9,1.9,5.2,3.2c3.6,1.5,6.6,3.6,6.6,7.9c0,5.3-3.8,8.4-10.5,8.4C556.7,216.4,553.8,215,552.5,214.1"/>
			<path class="st2" d="M231.9,175.5h-26.4v63.1h26.4V175.5z M167.8,160.6c-0.7,19.4-16.8,35-36.3,35c-12.7,0-24.5-6.7-31.1-17.6     l-24,10.8c10.9,20.3,32,33,55.1,33c33.9,0,61.8-27.4,62.5-61.2H167.8z M195.3,109.4h-47.2v49.9h-26.4V83h73.5V109.4z"/>
		</g>
	</g>
</g>
</svg>